<?xml version="1.0" encoding="UTF-8" standalone="no"?>
<svg width="429.683mm" height="268.111mm"
 viewBox="0 0 1218 760"
 xmlns="http://www.w3.org/2000/svg" xmlns:xlink="http://www.w3.org/1999/xlink"  version="1.2" baseProfile="tiny">
<title>Qt SVG Document</title>
<desc>Generated with Qt</desc>
<defs>
</defs>
<g fill="none" stroke="black" stroke-width="1" fill-rule="evenodd" stroke-linecap="square" stroke-linejoin="bevel" >

<g fill="none" stroke="#000000" stroke-opacity="1" stroke-width="1" stroke-linecap="square" stroke-linejoin="bevel" transform="matrix(1,0,0,1,0,0)"
font-family="MS Shell Dlg 2" font-size="8.25" font-weight="400" font-style="normal" 
>
</g>

<g fill="#000000" fill-opacity="1" stroke="none" transform="matrix(1,0,0,1,0,0)"
font-family="MS Shell Dlg 2" font-size="8.25" font-weight="400" font-style="normal" 
>
<path vector-effect="none" fill-rule="evenodd" d="M0,0 L1218,0 L1218,760 L0,760 L0,0"/>
</g>

<g fill="none" stroke="#000000" stroke-opacity="1" stroke-width="1" stroke-linecap="square" stroke-linejoin="bevel" transform="matrix(1,0,0,1,0,0)"
font-family="MS Shell Dlg 2" font-size="8.25" font-weight="400" font-style="normal" 
>
</g>

<g fill="#000000" fill-opacity="1" stroke="#000000" stroke-opacity="1" stroke-width="1" stroke-linecap="butt" stroke-linejoin="miter" stroke-miterlimit="2" transform="matrix(1,0,0,1,0,0)"
font-family="MS Shell Dlg 2" font-size="8.25" font-weight="400" font-style="normal" 
>
</g>

<g fill="#ffffff" fill-opacity="1" stroke="#ffffff" stroke-opacity="1" stroke-width="1" stroke-linecap="square" stroke-linejoin="bevel" transform="matrix(1,0,0,1,0,0)"
font-family="MS Shell Dlg 2" font-size="8.25" font-weight="400" font-style="normal" 
>
<polyline fill="none" vector-effect="non-scaling-stroke" points="355.667,546.25 355.667,0 " />
<polyline fill="none" vector-effect="non-scaling-stroke" points="292.333,0 355.667,0 " />
<polyline fill="none" vector-effect="non-scaling-stroke" points="355.667,546.25 347.75,546.25 " />
<polyline fill="none" vector-effect="non-scaling-stroke" points="347.75,546.25 347.75,760 " />
<polyline fill="none" vector-effect="non-scaling-stroke" points="347.75,760 300.25,760 " />
<polyline fill="none" vector-effect="non-scaling-stroke" points="300.25,760 300.25,546.25 " />
<polyline fill="none" vector-effect="non-scaling-stroke" points="300.25,546.25 292.333,546.25 " />
<polyline fill="none" vector-effect="non-scaling-stroke" points="292.333,546.25 292.333,0 " />
</g>

<g fill="none" stroke="#ffffff" stroke-opacity="1" stroke-width="1" stroke-linecap="square" stroke-linejoin="bevel" transform="matrix(1,0,0,1,324,63.3333)"
font-family="MS Shell Dlg 2" font-size="8.25" font-weight="400" font-style="normal" 
>
<path vector-effect="non-scaling-stroke" fill-rule="evenodd" d="M5.9375,0 C5.9375,-3.27919 3.27919,-5.9375 0,-5.9375 C-3.27919,-5.9375 -5.9375,-3.27919 -5.9375,0 C-5.9375,3.27919 -3.27919,5.9375 0,5.9375 C3.27919,5.9375 5.9375,3.27919 5.9375,0 "/>
</g>

<g fill="#ffffff" fill-opacity="1" stroke="#ffffff" stroke-opacity="1" stroke-width="1" stroke-linecap="square" stroke-linejoin="bevel" transform="matrix(1,0,0,1,0,0)"
font-family="MS Shell Dlg 2" font-size="8.25" font-weight="400" font-style="normal" 
>
</g>

<g fill="none" stroke="#ffffff" stroke-opacity="1" stroke-width="1" stroke-linecap="square" stroke-linejoin="bevel" transform="matrix(1,0,0,1,308.167,31.6667)"
font-family="MS Shell Dlg 2" font-size="8.25" font-weight="400" font-style="normal" 
>
<path vector-effect="non-scaling-stroke" fill-rule="evenodd" d="M5.9375,0 C5.9375,-3.27919 3.27919,-5.9375 0,-5.9375 C-3.27919,-5.9375 -5.9375,-3.27919 -5.9375,0 C-5.9375,3.27919 -3.27919,5.9375 0,5.9375 C3.27919,5.9375 5.9375,3.27919 5.9375,0 "/>
</g>

<g fill="#ffffff" fill-opacity="1" stroke="#ffffff" stroke-opacity="1" stroke-width="1" stroke-linecap="square" stroke-linejoin="bevel" transform="matrix(1,0,0,1,0,0)"
font-family="MS Shell Dlg 2" font-size="8.25" font-weight="400" font-style="normal" 
>
</g>

<g fill="none" stroke="#ffffff" stroke-opacity="1" stroke-width="1" stroke-linecap="square" stroke-linejoin="bevel" transform="matrix(1,0,0,1,339.833,31.6667)"
font-family="MS Shell Dlg 2" font-size="8.25" font-weight="400" font-style="normal" 
>
<path vector-effect="non-scaling-stroke" fill-rule="evenodd" d="M5.9375,0 C5.9375,-3.27919 3.27919,-5.9375 0,-5.9375 C-3.27919,-5.9375 -5.9375,-3.27919 -5.9375,0 C-5.9375,3.27919 -3.27919,5.9375 0,5.9375 C3.27919,5.9375 5.9375,3.27919 5.9375,0 "/>
</g>

<g fill="#ffffff" fill-opacity="1" stroke="#ffffff" stroke-opacity="1" stroke-width="1" stroke-linecap="square" stroke-linejoin="bevel" transform="matrix(1,0,0,1,0,0)"
font-family="MS Shell Dlg 2" font-size="8.25" font-weight="400" font-style="normal" 
>
<polyline fill="none" vector-effect="non-scaling-stroke" points="419,546.25 419,0 " />
<polyline fill="none" vector-effect="non-scaling-stroke" points="355.667,0 419,0 " />
<polyline fill="none" vector-effect="non-scaling-stroke" points="419,546.25 411.083,546.25 " />
<polyline fill="none" vector-effect="non-scaling-stroke" points="411.083,546.25 411.083,760 " />
<polyline fill="none" vector-effect="non-scaling-stroke" points="411.083,760 363.583,760 " />
<polyline fill="none" vector-effect="non-scaling-stroke" points="363.583,760 363.583,546.25 " />
<polyline fill="none" vector-effect="non-scaling-stroke" points="363.583,546.25 355.667,546.25 " />
<polyline fill="none" vector-effect="non-scaling-stroke" points="355.667,546.25 355.667,0 " />
</g>

<g fill="none" stroke="#ffffff" stroke-opacity="1" stroke-width="1" stroke-linecap="square" stroke-linejoin="bevel" transform="matrix(1,0,0,1,387.333,63.3333)"
font-family="MS Shell Dlg 2" font-size="8.25" font-weight="400" font-style="normal" 
>
<path vector-effect="non-scaling-stroke" fill-rule="evenodd" d="M5.9375,0 C5.9375,-3.27919 3.27919,-5.9375 0,-5.9375 C-3.27919,-5.9375 -5.9375,-3.27919 -5.9375,0 C-5.9375,3.27919 -3.27919,5.9375 0,5.9375 C3.27919,5.9375 5.9375,3.27919 5.9375,0 "/>
</g>

<g fill="#ffffff" fill-opacity="1" stroke="#ffffff" stroke-opacity="1" stroke-width="1" stroke-linecap="square" stroke-linejoin="bevel" transform="matrix(1,0,0,1,0,0)"
font-family="MS Shell Dlg 2" font-size="8.25" font-weight="400" font-style="normal" 
>
</g>

<g fill="none" stroke="#ffffff" stroke-opacity="1" stroke-width="1" stroke-linecap="square" stroke-linejoin="bevel" transform="matrix(1,0,0,1,371.5,31.6667)"
font-family="MS Shell Dlg 2" font-size="8.25" font-weight="400" font-style="normal" 
>
<path vector-effect="non-scaling-stroke" fill-rule="evenodd" d="M5.9375,0 C5.9375,-3.27919 3.27919,-5.9375 0,-5.9375 C-3.27919,-5.9375 -5.9375,-3.27919 -5.9375,0 C-5.9375,3.27919 -3.27919,5.9375 0,5.9375 C3.27919,5.9375 5.9375,3.27919 5.9375,0 "/>
</g>

<g fill="#ffffff" fill-opacity="1" stroke="#ffffff" stroke-opacity="1" stroke-width="1" stroke-linecap="square" stroke-linejoin="bevel" transform="matrix(1,0,0,1,0,0)"
font-family="MS Shell Dlg 2" font-size="8.25" font-weight="400" font-style="normal" 
>
</g>

<g fill="none" stroke="#ffffff" stroke-opacity="1" stroke-width="1" stroke-linecap="square" stroke-linejoin="bevel" transform="matrix(1,0,0,1,403.167,31.6667)"
font-family="MS Shell Dlg 2" font-size="8.25" font-weight="400" font-style="normal" 
>
<path vector-effect="non-scaling-stroke" fill-rule="evenodd" d="M5.9375,0 C5.9375,-3.27919 3.27919,-5.9375 0,-5.9375 C-3.27919,-5.9375 -5.9375,-3.27919 -5.9375,0 C-5.9375,3.27919 -3.27919,5.9375 0,5.9375 C3.27919,5.9375 5.9375,3.27919 5.9375,0 "/>
</g>

<g fill="#ffffff" fill-opacity="1" stroke="#ffffff" stroke-opacity="1" stroke-width="1" stroke-linecap="square" stroke-linejoin="bevel" transform="matrix(1,0,0,1,0,0)"
font-family="MS Shell Dlg 2" font-size="8.25" font-weight="400" font-style="normal" 
>
<polyline fill="none" vector-effect="non-scaling-stroke" points="482.333,546.25 482.333,0 " />
<polyline fill="none" vector-effect="non-scaling-stroke" points="419,0 482.333,0 " />
<polyline fill="none" vector-effect="non-scaling-stroke" points="482.333,546.25 474.417,546.25 " />
<polyline fill="none" vector-effect="non-scaling-stroke" points="474.417,546.25 474.417,760 " />
<polyline fill="none" vector-effect="non-scaling-stroke" points="474.417,760 426.917,760 " />
<polyline fill="none" vector-effect="non-scaling-stroke" points="426.917,760 426.917,546.25 " />
<polyline fill="none" vector-effect="non-scaling-stroke" points="426.917,546.25 419,546.25 " />
<polyline fill="none" vector-effect="non-scaling-stroke" points="419,546.25 419,0 " />
</g>

<g fill="none" stroke="#ffffff" stroke-opacity="1" stroke-width="1" stroke-linecap="square" stroke-linejoin="bevel" transform="matrix(1,0,0,1,450.667,63.3333)"
font-family="MS Shell Dlg 2" font-size="8.25" font-weight="400" font-style="normal" 
>
<path vector-effect="non-scaling-stroke" fill-rule="evenodd" d="M5.9375,0 C5.9375,-3.27919 3.27919,-5.9375 0,-5.9375 C-3.27919,-5.9375 -5.9375,-3.27919 -5.9375,0 C-5.9375,3.27919 -3.27919,5.9375 0,5.9375 C3.27919,5.9375 5.9375,3.27919 5.9375,0 "/>
</g>

<g fill="#ffffff" fill-opacity="1" stroke="#ffffff" stroke-opacity="1" stroke-width="1" stroke-linecap="square" stroke-linejoin="bevel" transform="matrix(1,0,0,1,0,0)"
font-family="MS Shell Dlg 2" font-size="8.25" font-weight="400" font-style="normal" 
>
</g>

<g fill="none" stroke="#ffffff" stroke-opacity="1" stroke-width="1" stroke-linecap="square" stroke-linejoin="bevel" transform="matrix(1,0,0,1,434.833,31.6667)"
font-family="MS Shell Dlg 2" font-size="8.25" font-weight="400" font-style="normal" 
>
<path vector-effect="non-scaling-stroke" fill-rule="evenodd" d="M5.9375,0 C5.9375,-3.27919 3.27919,-5.9375 0,-5.9375 C-3.27919,-5.9375 -5.9375,-3.27919 -5.9375,0 C-5.9375,3.27919 -3.27919,5.9375 0,5.9375 C3.27919,5.9375 5.9375,3.27919 5.9375,0 "/>
</g>

<g fill="#ffffff" fill-opacity="1" stroke="#ffffff" stroke-opacity="1" stroke-width="1" stroke-linecap="square" stroke-linejoin="bevel" transform="matrix(1,0,0,1,0,0)"
font-family="MS Shell Dlg 2" font-size="8.25" font-weight="400" font-style="normal" 
>
</g>

<g fill="none" stroke="#ffffff" stroke-opacity="1" stroke-width="1" stroke-linecap="square" stroke-linejoin="bevel" transform="matrix(1,0,0,1,466.5,31.6667)"
font-family="MS Shell Dlg 2" font-size="8.25" font-weight="400" font-style="normal" 
>
<path vector-effect="non-scaling-stroke" fill-rule="evenodd" d="M5.9375,0 C5.9375,-3.27919 3.27919,-5.9375 0,-5.9375 C-3.27919,-5.9375 -5.9375,-3.27919 -5.9375,0 C-5.9375,3.27919 -3.27919,5.9375 0,5.9375 C3.27919,5.9375 5.9375,3.27919 5.9375,0 "/>
</g>

<g fill="#ffffff" fill-opacity="1" stroke="#ffffff" stroke-opacity="1" stroke-width="1" stroke-linecap="square" stroke-linejoin="bevel" transform="matrix(1,0,0,1,0,0)"
font-family="MS Shell Dlg 2" font-size="8.25" font-weight="400" font-style="normal" 
>
<polyline fill="none" vector-effect="non-scaling-stroke" points="545.667,546.25 545.667,0 " />
<polyline fill="none" vector-effect="non-scaling-stroke" points="482.333,0 545.667,0 " />
<polyline fill="none" vector-effect="non-scaling-stroke" points="545.667,546.25 537.75,546.25 " />
<polyline fill="none" vector-effect="non-scaling-stroke" points="537.75,546.25 537.75,760 " />
<polyline fill="none" vector-effect="non-scaling-stroke" points="537.75,760 490.25,760 " />
<polyline fill="none" vector-effect="non-scaling-stroke" points="490.25,760 490.25,546.25 " />
<polyline fill="none" vector-effect="non-scaling-stroke" points="490.25,546.25 482.333,546.25 " />
<polyline fill="none" vector-effect="non-scaling-stroke" points="482.333,546.25 482.333,0 " />
</g>

<g fill="none" stroke="#ffffff" stroke-opacity="1" stroke-width="1" stroke-linecap="square" stroke-linejoin="bevel" transform="matrix(1,0,0,1,514,63.3333)"
font-family="MS Shell Dlg 2" font-size="8.25" font-weight="400" font-style="normal" 
>
<path vector-effect="non-scaling-stroke" fill-rule="evenodd" d="M5.9375,0 C5.9375,-3.27919 3.27919,-5.9375 0,-5.9375 C-3.27919,-5.9375 -5.9375,-3.27919 -5.9375,0 C-5.9375,3.27919 -3.27919,5.9375 0,5.9375 C3.27919,5.9375 5.9375,3.27919 5.9375,0 "/>
</g>

<g fill="#ffffff" fill-opacity="1" stroke="#ffffff" stroke-opacity="1" stroke-width="1" stroke-linecap="square" stroke-linejoin="bevel" transform="matrix(1,0,0,1,0,0)"
font-family="MS Shell Dlg 2" font-size="8.25" font-weight="400" font-style="normal" 
>
</g>

<g fill="none" stroke="#ffffff" stroke-opacity="1" stroke-width="1" stroke-linecap="square" stroke-linejoin="bevel" transform="matrix(1,0,0,1,498.167,31.6667)"
font-family="MS Shell Dlg 2" font-size="8.25" font-weight="400" font-style="normal" 
>
<path vector-effect="non-scaling-stroke" fill-rule="evenodd" d="M5.9375,0 C5.9375,-3.27919 3.27919,-5.9375 0,-5.9375 C-3.27919,-5.9375 -5.9375,-3.27919 -5.9375,0 C-5.9375,3.27919 -3.27919,5.9375 0,5.9375 C3.27919,5.9375 5.9375,3.27919 5.9375,0 "/>
</g>

<g fill="#ffffff" fill-opacity="1" stroke="#ffffff" stroke-opacity="1" stroke-width="1" stroke-linecap="square" stroke-linejoin="bevel" transform="matrix(1,0,0,1,0,0)"
font-family="MS Shell Dlg 2" font-size="8.25" font-weight="400" font-style="normal" 
>
</g>

<g fill="none" stroke="#ffffff" stroke-opacity="1" stroke-width="1" stroke-linecap="square" stroke-linejoin="bevel" transform="matrix(1,0,0,1,529.833,31.6667)"
font-family="MS Shell Dlg 2" font-size="8.25" font-weight="400" font-style="normal" 
>
<path vector-effect="non-scaling-stroke" fill-rule="evenodd" d="M5.9375,0 C5.9375,-3.27919 3.27919,-5.9375 0,-5.9375 C-3.27919,-5.9375 -5.9375,-3.27919 -5.9375,0 C-5.9375,3.27919 -3.27919,5.9375 0,5.9375 C3.27919,5.9375 5.9375,3.27919 5.9375,0 "/>
</g>

<g fill="#ffffff" fill-opacity="1" stroke="#ffffff" stroke-opacity="1" stroke-width="1" stroke-linecap="square" stroke-linejoin="bevel" transform="matrix(1,0,0,1,0,0)"
font-family="MS Shell Dlg 2" font-size="8.25" font-weight="400" font-style="normal" 
>
<polyline fill="none" vector-effect="non-scaling-stroke" points="609,546.25 609,0 " />
<polyline fill="none" vector-effect="non-scaling-stroke" points="545.667,0 609,0 " />
<polyline fill="none" vector-effect="non-scaling-stroke" points="609,546.25 601.083,546.25 " />
<polyline fill="none" vector-effect="non-scaling-stroke" points="601.083,546.25 601.083,760 " />
<polyline fill="none" vector-effect="non-scaling-stroke" points="601.083,760 553.583,760 " />
<polyline fill="none" vector-effect="non-scaling-stroke" points="553.583,760 553.583,546.25 " />
<polyline fill="none" vector-effect="non-scaling-stroke" points="553.583,546.25 545.667,546.25 " />
<polyline fill="none" vector-effect="non-scaling-stroke" points="545.667,546.25 545.667,0 " />
</g>

<g fill="none" stroke="#ffffff" stroke-opacity="1" stroke-width="1" stroke-linecap="square" stroke-linejoin="bevel" transform="matrix(1,0,0,1,577.333,63.3333)"
font-family="MS Shell Dlg 2" font-size="8.25" font-weight="400" font-style="normal" 
>
<path vector-effect="non-scaling-stroke" fill-rule="evenodd" d="M5.9375,0 C5.9375,-3.27919 3.27919,-5.9375 0,-5.9375 C-3.27919,-5.9375 -5.9375,-3.27919 -5.9375,0 C-5.9375,3.27919 -3.27919,5.9375 0,5.9375 C3.27919,5.9375 5.9375,3.27919 5.9375,0 "/>
</g>

<g fill="#ffffff" fill-opacity="1" stroke="#ffffff" stroke-opacity="1" stroke-width="1" stroke-linecap="square" stroke-linejoin="bevel" transform="matrix(1,0,0,1,0,0)"
font-family="MS Shell Dlg 2" font-size="8.25" font-weight="400" font-style="normal" 
>
</g>

<g fill="none" stroke="#ffffff" stroke-opacity="1" stroke-width="1" stroke-linecap="square" stroke-linejoin="bevel" transform="matrix(1,0,0,1,561.5,31.6667)"
font-family="MS Shell Dlg 2" font-size="8.25" font-weight="400" font-style="normal" 
>
<path vector-effect="non-scaling-stroke" fill-rule="evenodd" d="M5.9375,0 C5.9375,-3.27919 3.27919,-5.9375 0,-5.9375 C-3.27919,-5.9375 -5.9375,-3.27919 -5.9375,0 C-5.9375,3.27919 -3.27919,5.9375 0,5.9375 C3.27919,5.9375 5.9375,3.27919 5.9375,0 "/>
</g>

<g fill="#ffffff" fill-opacity="1" stroke="#ffffff" stroke-opacity="1" stroke-width="1" stroke-linecap="square" stroke-linejoin="bevel" transform="matrix(1,0,0,1,0,0)"
font-family="MS Shell Dlg 2" font-size="8.25" font-weight="400" font-style="normal" 
>
</g>

<g fill="none" stroke="#ffffff" stroke-opacity="1" stroke-width="1" stroke-linecap="square" stroke-linejoin="bevel" transform="matrix(1,0,0,1,593.167,31.6667)"
font-family="MS Shell Dlg 2" font-size="8.25" font-weight="400" font-style="normal" 
>
<path vector-effect="non-scaling-stroke" fill-rule="evenodd" d="M5.9375,0 C5.9375,-3.27919 3.27919,-5.9375 0,-5.9375 C-3.27919,-5.9375 -5.9375,-3.27919 -5.9375,0 C-5.9375,3.27919 -3.27919,5.9375 0,5.9375 C3.27919,5.9375 5.9375,3.27919 5.9375,0 "/>
</g>

<g fill="#ffffff" fill-opacity="1" stroke="#ffffff" stroke-opacity="1" stroke-width="1" stroke-linecap="square" stroke-linejoin="bevel" transform="matrix(1,0,0,1,0,0)"
font-family="MS Shell Dlg 2" font-size="8.25" font-weight="400" font-style="normal" 
>
<polyline fill="none" vector-effect="non-scaling-stroke" points="672.333,546.25 672.333,0 " />
<polyline fill="none" vector-effect="non-scaling-stroke" points="609,0 672.333,0 " />
<polyline fill="none" vector-effect="non-scaling-stroke" points="672.333,546.25 664.417,546.25 " />
<polyline fill="none" vector-effect="non-scaling-stroke" points="664.417,546.25 664.417,760 " />
<polyline fill="none" vector-effect="non-scaling-stroke" points="664.417,760 616.917,760 " />
<polyline fill="none" vector-effect="non-scaling-stroke" points="616.917,760 616.917,546.25 " />
<polyline fill="none" vector-effect="non-scaling-stroke" points="616.917,546.25 609,546.25 " />
<polyline fill="none" vector-effect="non-scaling-stroke" points="609,546.25 609,0 " />
</g>

<g fill="none" stroke="#ffffff" stroke-opacity="1" stroke-width="1" stroke-linecap="square" stroke-linejoin="bevel" transform="matrix(1,0,0,1,640.667,63.3333)"
font-family="MS Shell Dlg 2" font-size="8.25" font-weight="400" font-style="normal" 
>
<path vector-effect="non-scaling-stroke" fill-rule="evenodd" d="M5.9375,0 C5.9375,-3.27919 3.27919,-5.9375 0,-5.9375 C-3.27919,-5.9375 -5.9375,-3.27919 -5.9375,0 C-5.9375,3.27919 -3.27919,5.9375 0,5.9375 C3.27919,5.9375 5.9375,3.27919 5.9375,0 "/>
</g>

<g fill="#ffffff" fill-opacity="1" stroke="#ffffff" stroke-opacity="1" stroke-width="1" stroke-linecap="square" stroke-linejoin="bevel" transform="matrix(1,0,0,1,0,0)"
font-family="MS Shell Dlg 2" font-size="8.25" font-weight="400" font-style="normal" 
>
</g>

<g fill="none" stroke="#ffffff" stroke-opacity="1" stroke-width="1" stroke-linecap="square" stroke-linejoin="bevel" transform="matrix(1,0,0,1,624.833,31.6667)"
font-family="MS Shell Dlg 2" font-size="8.25" font-weight="400" font-style="normal" 
>
<path vector-effect="non-scaling-stroke" fill-rule="evenodd" d="M5.9375,0 C5.9375,-3.27919 3.27919,-5.9375 0,-5.9375 C-3.27919,-5.9375 -5.9375,-3.27919 -5.9375,0 C-5.9375,3.27919 -3.27919,5.9375 0,5.9375 C3.27919,5.9375 5.9375,3.27919 5.9375,0 "/>
</g>

<g fill="#ffffff" fill-opacity="1" stroke="#ffffff" stroke-opacity="1" stroke-width="1" stroke-linecap="square" stroke-linejoin="bevel" transform="matrix(1,0,0,1,0,0)"
font-family="MS Shell Dlg 2" font-size="8.25" font-weight="400" font-style="normal" 
>
</g>

<g fill="none" stroke="#ffffff" stroke-opacity="1" stroke-width="1" stroke-linecap="square" stroke-linejoin="bevel" transform="matrix(1,0,0,1,656.5,31.6667)"
font-family="MS Shell Dlg 2" font-size="8.25" font-weight="400" font-style="normal" 
>
<path vector-effect="non-scaling-stroke" fill-rule="evenodd" d="M5.9375,0 C5.9375,-3.27919 3.27919,-5.9375 0,-5.9375 C-3.27919,-5.9375 -5.9375,-3.27919 -5.9375,0 C-5.9375,3.27919 -3.27919,5.9375 0,5.9375 C3.27919,5.9375 5.9375,3.27919 5.9375,0 "/>
</g>

<g fill="#ffffff" fill-opacity="1" stroke="#ffffff" stroke-opacity="1" stroke-width="1" stroke-linecap="square" stroke-linejoin="bevel" transform="matrix(1,0,0,1,0,0)"
font-family="MS Shell Dlg 2" font-size="8.25" font-weight="400" font-style="normal" 
>
<polyline fill="none" vector-effect="non-scaling-stroke" points="735.667,546.25 735.667,0 " />
<polyline fill="none" vector-effect="non-scaling-stroke" points="672.333,0 735.667,0 " />
<polyline fill="none" vector-effect="non-scaling-stroke" points="735.667,546.25 727.75,546.25 " />
<polyline fill="none" vector-effect="non-scaling-stroke" points="727.75,546.25 727.75,760 " />
<polyline fill="none" vector-effect="non-scaling-stroke" points="727.75,760 680.25,760 " />
<polyline fill="none" vector-effect="non-scaling-stroke" points="680.25,760 680.25,546.25 " />
<polyline fill="none" vector-effect="non-scaling-stroke" points="680.25,546.25 672.333,546.25 " />
<polyline fill="none" vector-effect="non-scaling-stroke" points="672.333,546.25 672.333,0 " />
</g>

<g fill="none" stroke="#ffffff" stroke-opacity="1" stroke-width="1" stroke-linecap="square" stroke-linejoin="bevel" transform="matrix(1,0,0,1,704,63.3333)"
font-family="MS Shell Dlg 2" font-size="8.25" font-weight="400" font-style="normal" 
>
<path vector-effect="non-scaling-stroke" fill-rule="evenodd" d="M5.9375,0 C5.9375,-3.27919 3.27919,-5.9375 0,-5.9375 C-3.27919,-5.9375 -5.9375,-3.27919 -5.9375,0 C-5.9375,3.27919 -3.27919,5.9375 0,5.9375 C3.27919,5.9375 5.9375,3.27919 5.9375,0 "/>
</g>

<g fill="#ffffff" fill-opacity="1" stroke="#ffffff" stroke-opacity="1" stroke-width="1" stroke-linecap="square" stroke-linejoin="bevel" transform="matrix(1,0,0,1,0,0)"
font-family="MS Shell Dlg 2" font-size="8.25" font-weight="400" font-style="normal" 
>
</g>

<g fill="none" stroke="#ffffff" stroke-opacity="1" stroke-width="1" stroke-linecap="square" stroke-linejoin="bevel" transform="matrix(1,0,0,1,688.167,31.6667)"
font-family="MS Shell Dlg 2" font-size="8.25" font-weight="400" font-style="normal" 
>
<path vector-effect="non-scaling-stroke" fill-rule="evenodd" d="M5.9375,0 C5.9375,-3.27919 3.27919,-5.9375 0,-5.9375 C-3.27919,-5.9375 -5.9375,-3.27919 -5.9375,0 C-5.9375,3.27919 -3.27919,5.9375 0,5.9375 C3.27919,5.9375 5.9375,3.27919 5.9375,0 "/>
</g>

<g fill="#ffffff" fill-opacity="1" stroke="#ffffff" stroke-opacity="1" stroke-width="1" stroke-linecap="square" stroke-linejoin="bevel" transform="matrix(1,0,0,1,0,0)"
font-family="MS Shell Dlg 2" font-size="8.25" font-weight="400" font-style="normal" 
>
</g>

<g fill="none" stroke="#ffffff" stroke-opacity="1" stroke-width="1" stroke-linecap="square" stroke-linejoin="bevel" transform="matrix(1,0,0,1,719.833,31.6667)"
font-family="MS Shell Dlg 2" font-size="8.25" font-weight="400" font-style="normal" 
>
<path vector-effect="non-scaling-stroke" fill-rule="evenodd" d="M5.9375,0 C5.9375,-3.27919 3.27919,-5.9375 0,-5.9375 C-3.27919,-5.9375 -5.9375,-3.27919 -5.9375,0 C-5.9375,3.27919 -3.27919,5.9375 0,5.9375 C3.27919,5.9375 5.9375,3.27919 5.9375,0 "/>
</g>

<g fill="#ffffff" fill-opacity="1" stroke="#ffffff" stroke-opacity="1" stroke-width="1" stroke-linecap="square" stroke-linejoin="bevel" transform="matrix(1,0,0,1,0,0)"
font-family="MS Shell Dlg 2" font-size="8.25" font-weight="400" font-style="normal" 
>
<polyline fill="none" vector-effect="non-scaling-stroke" points="799,546.25 799,0 " />
<polyline fill="none" vector-effect="non-scaling-stroke" points="735.667,0 799,0 " />
<polyline fill="none" vector-effect="non-scaling-stroke" points="799,546.25 791.083,546.25 " />
<polyline fill="none" vector-effect="non-scaling-stroke" points="791.083,546.25 791.083,760 " />
<polyline fill="none" vector-effect="non-scaling-stroke" points="791.083,760 743.583,760 " />
<polyline fill="none" vector-effect="non-scaling-stroke" points="743.583,760 743.583,546.25 " />
<polyline fill="none" vector-effect="non-scaling-stroke" points="743.583,546.25 735.667,546.25 " />
<polyline fill="none" vector-effect="non-scaling-stroke" points="735.667,546.25 735.667,0 " />
</g>

<g fill="none" stroke="#ffffff" stroke-opacity="1" stroke-width="1" stroke-linecap="square" stroke-linejoin="bevel" transform="matrix(1,0,0,1,767.333,63.3333)"
font-family="MS Shell Dlg 2" font-size="8.25" font-weight="400" font-style="normal" 
>
<path vector-effect="non-scaling-stroke" fill-rule="evenodd" d="M5.9375,0 C5.9375,-3.27919 3.27919,-5.9375 0,-5.9375 C-3.27919,-5.9375 -5.9375,-3.27919 -5.9375,0 C-5.9375,3.27919 -3.27919,5.9375 0,5.9375 C3.27919,5.9375 5.9375,3.27919 5.9375,0 "/>
</g>

<g fill="#ffffff" fill-opacity="1" stroke="#ffffff" stroke-opacity="1" stroke-width="1" stroke-linecap="square" stroke-linejoin="bevel" transform="matrix(1,0,0,1,0,0)"
font-family="MS Shell Dlg 2" font-size="8.25" font-weight="400" font-style="normal" 
>
</g>

<g fill="none" stroke="#ffffff" stroke-opacity="1" stroke-width="1" stroke-linecap="square" stroke-linejoin="bevel" transform="matrix(1,0,0,1,751.5,31.6667)"
font-family="MS Shell Dlg 2" font-size="8.25" font-weight="400" font-style="normal" 
>
<path vector-effect="non-scaling-stroke" fill-rule="evenodd" d="M5.9375,0 C5.9375,-3.27919 3.27919,-5.9375 0,-5.9375 C-3.27919,-5.9375 -5.9375,-3.27919 -5.9375,0 C-5.9375,3.27919 -3.27919,5.9375 0,5.9375 C3.27919,5.9375 5.9375,3.27919 5.9375,0 "/>
</g>

<g fill="#ffffff" fill-opacity="1" stroke="#ffffff" stroke-opacity="1" stroke-width="1" stroke-linecap="square" stroke-linejoin="bevel" transform="matrix(1,0,0,1,0,0)"
font-family="MS Shell Dlg 2" font-size="8.25" font-weight="400" font-style="normal" 
>
</g>

<g fill="none" stroke="#ffffff" stroke-opacity="1" stroke-width="1" stroke-linecap="square" stroke-linejoin="bevel" transform="matrix(1,0,0,1,783.167,31.6667)"
font-family="MS Shell Dlg 2" font-size="8.25" font-weight="400" font-style="normal" 
>
<path vector-effect="non-scaling-stroke" fill-rule="evenodd" d="M5.9375,0 C5.9375,-3.27919 3.27919,-5.9375 0,-5.9375 C-3.27919,-5.9375 -5.9375,-3.27919 -5.9375,0 C-5.9375,3.27919 -3.27919,5.9375 0,5.9375 C3.27919,5.9375 5.9375,3.27919 5.9375,0 "/>
</g>

<g fill="#ffffff" fill-opacity="1" stroke="#ffffff" stroke-opacity="1" stroke-width="1" stroke-linecap="square" stroke-linejoin="bevel" transform="matrix(1,0,0,1,0,0)"
font-family="MS Shell Dlg 2" font-size="8.25" font-weight="400" font-style="normal" 
>
<polyline fill="none" vector-effect="non-scaling-stroke" points="862.333,546.25 862.333,0 " />
<polyline fill="none" vector-effect="non-scaling-stroke" points="799,0 862.333,0 " />
<polyline fill="none" vector-effect="non-scaling-stroke" points="862.333,546.25 854.417,546.25 " />
<polyline fill="none" vector-effect="non-scaling-stroke" points="854.417,546.25 854.417,760 " />
<polyline fill="none" vector-effect="non-scaling-stroke" points="854.417,760 806.917,760 " />
<polyline fill="none" vector-effect="non-scaling-stroke" points="806.917,760 806.917,546.25 " />
<polyline fill="none" vector-effect="non-scaling-stroke" points="806.917,546.25 799,546.25 " />
<polyline fill="none" vector-effect="non-scaling-stroke" points="799,546.25 799,0 " />
</g>

<g fill="none" stroke="#ffffff" stroke-opacity="1" stroke-width="1" stroke-linecap="square" stroke-linejoin="bevel" transform="matrix(1,0,0,1,830.667,63.3333)"
font-family="MS Shell Dlg 2" font-size="8.25" font-weight="400" font-style="normal" 
>
<path vector-effect="non-scaling-stroke" fill-rule="evenodd" d="M5.9375,0 C5.9375,-3.27919 3.27919,-5.9375 0,-5.9375 C-3.27919,-5.9375 -5.9375,-3.27919 -5.9375,0 C-5.9375,3.27919 -3.27919,5.9375 0,5.9375 C3.27919,5.9375 5.9375,3.27919 5.9375,0 "/>
</g>

<g fill="#ffffff" fill-opacity="1" stroke="#ffffff" stroke-opacity="1" stroke-width="1" stroke-linecap="square" stroke-linejoin="bevel" transform="matrix(1,0,0,1,0,0)"
font-family="MS Shell Dlg 2" font-size="8.25" font-weight="400" font-style="normal" 
>
</g>

<g fill="none" stroke="#ffffff" stroke-opacity="1" stroke-width="1" stroke-linecap="square" stroke-linejoin="bevel" transform="matrix(1,0,0,1,814.833,31.6667)"
font-family="MS Shell Dlg 2" font-size="8.25" font-weight="400" font-style="normal" 
>
<path vector-effect="non-scaling-stroke" fill-rule="evenodd" d="M5.9375,0 C5.9375,-3.27919 3.27919,-5.9375 0,-5.9375 C-3.27919,-5.9375 -5.9375,-3.27919 -5.9375,0 C-5.9375,3.27919 -3.27919,5.9375 0,5.9375 C3.27919,5.9375 5.9375,3.27919 5.9375,0 "/>
</g>

<g fill="#ffffff" fill-opacity="1" stroke="#ffffff" stroke-opacity="1" stroke-width="1" stroke-linecap="square" stroke-linejoin="bevel" transform="matrix(1,0,0,1,0,0)"
font-family="MS Shell Dlg 2" font-size="8.25" font-weight="400" font-style="normal" 
>
</g>

<g fill="none" stroke="#ffffff" stroke-opacity="1" stroke-width="1" stroke-linecap="square" stroke-linejoin="bevel" transform="matrix(1,0,0,1,846.5,31.6667)"
font-family="MS Shell Dlg 2" font-size="8.25" font-weight="400" font-style="normal" 
>
<path vector-effect="non-scaling-stroke" fill-rule="evenodd" d="M5.9375,0 C5.9375,-3.27919 3.27919,-5.9375 0,-5.9375 C-3.27919,-5.9375 -5.9375,-3.27919 -5.9375,0 C-5.9375,3.27919 -3.27919,5.9375 0,5.9375 C3.27919,5.9375 5.9375,3.27919 5.9375,0 "/>
</g>

<g fill="#ffffff" fill-opacity="1" stroke="#ffffff" stroke-opacity="1" stroke-width="1" stroke-linecap="square" stroke-linejoin="bevel" transform="matrix(1,0,0,1,0,0)"
font-family="MS Shell Dlg 2" font-size="8.25" font-weight="400" font-style="normal" 
>
<polyline fill="none" vector-effect="non-scaling-stroke" points="925.667,546.25 925.667,0 " />
<polyline fill="none" vector-effect="non-scaling-stroke" points="862.333,0 925.667,0 " />
<polyline fill="none" vector-effect="non-scaling-stroke" points="925.667,546.25 917.75,546.25 " />
<polyline fill="none" vector-effect="non-scaling-stroke" points="917.75,546.25 917.75,760 " />
<polyline fill="none" vector-effect="non-scaling-stroke" points="917.75,760 870.25,760 " />
<polyline fill="none" vector-effect="non-scaling-stroke" points="870.25,760 870.25,546.25 " />
<polyline fill="none" vector-effect="non-scaling-stroke" points="870.25,546.25 862.333,546.25 " />
<polyline fill="none" vector-effect="non-scaling-stroke" points="862.333,546.25 862.333,0 " />
</g>

<g fill="none" stroke="#ffffff" stroke-opacity="1" stroke-width="1" stroke-linecap="square" stroke-linejoin="bevel" transform="matrix(1,0,0,1,894,63.3333)"
font-family="MS Shell Dlg 2" font-size="8.25" font-weight="400" font-style="normal" 
>
<path vector-effect="non-scaling-stroke" fill-rule="evenodd" d="M5.9375,0 C5.9375,-3.27919 3.27919,-5.9375 0,-5.9375 C-3.27919,-5.9375 -5.9375,-3.27919 -5.9375,0 C-5.9375,3.27919 -3.27919,5.9375 0,5.9375 C3.27919,5.9375 5.9375,3.27919 5.9375,0 "/>
</g>

<g fill="#ffffff" fill-opacity="1" stroke="#ffffff" stroke-opacity="1" stroke-width="1" stroke-linecap="square" stroke-linejoin="bevel" transform="matrix(1,0,0,1,0,0)"
font-family="MS Shell Dlg 2" font-size="8.25" font-weight="400" font-style="normal" 
>
</g>

<g fill="none" stroke="#ffffff" stroke-opacity="1" stroke-width="1" stroke-linecap="square" stroke-linejoin="bevel" transform="matrix(1,0,0,1,878.167,31.6667)"
font-family="MS Shell Dlg 2" font-size="8.25" font-weight="400" font-style="normal" 
>
<path vector-effect="non-scaling-stroke" fill-rule="evenodd" d="M5.9375,0 C5.9375,-3.27919 3.27919,-5.9375 0,-5.9375 C-3.27919,-5.9375 -5.9375,-3.27919 -5.9375,0 C-5.9375,3.27919 -3.27919,5.9375 0,5.9375 C3.27919,5.9375 5.9375,3.27919 5.9375,0 "/>
</g>

<g fill="#ffffff" fill-opacity="1" stroke="#ffffff" stroke-opacity="1" stroke-width="1" stroke-linecap="square" stroke-linejoin="bevel" transform="matrix(1,0,0,1,0,0)"
font-family="MS Shell Dlg 2" font-size="8.25" font-weight="400" font-style="normal" 
>
</g>

<g fill="none" stroke="#ffffff" stroke-opacity="1" stroke-width="1" stroke-linecap="square" stroke-linejoin="bevel" transform="matrix(1,0,0,1,909.833,31.6667)"
font-family="MS Shell Dlg 2" font-size="8.25" font-weight="400" font-style="normal" 
>
<path vector-effect="non-scaling-stroke" fill-rule="evenodd" d="M5.9375,0 C5.9375,-3.27919 3.27919,-5.9375 0,-5.9375 C-3.27919,-5.9375 -5.9375,-3.27919 -5.9375,0 C-5.9375,3.27919 -3.27919,5.9375 0,5.9375 C3.27919,5.9375 5.9375,3.27919 5.9375,0 "/>
</g>

<g fill="#ffffff" fill-opacity="1" stroke="#ffffff" stroke-opacity="1" stroke-width="1" stroke-linecap="square" stroke-linejoin="bevel" transform="matrix(1,0,0,1,0,0)"
font-family="MS Shell Dlg 2" font-size="8.25" font-weight="400" font-style="normal" 
>
<polyline fill="none" vector-effect="non-scaling-stroke" points="989,546.25 989,0 " />
<polyline fill="none" vector-effect="non-scaling-stroke" points="925.667,0 989,0 " />
<polyline fill="none" vector-effect="non-scaling-stroke" points="989,546.25 981.083,546.25 " />
<polyline fill="none" vector-effect="non-scaling-stroke" points="981.083,546.25 981.083,760 " />
<polyline fill="none" vector-effect="non-scaling-stroke" points="981.083,760 933.583,760 " />
<polyline fill="none" vector-effect="non-scaling-stroke" points="933.583,760 933.583,546.25 " />
<polyline fill="none" vector-effect="non-scaling-stroke" points="933.583,546.25 925.667,546.25 " />
<polyline fill="none" vector-effect="non-scaling-stroke" points="925.667,546.25 925.667,0 " />
</g>

<g fill="none" stroke="#ffffff" stroke-opacity="1" stroke-width="1" stroke-linecap="square" stroke-linejoin="bevel" transform="matrix(1,0,0,1,957.333,63.3333)"
font-family="MS Shell Dlg 2" font-size="8.25" font-weight="400" font-style="normal" 
>
<path vector-effect="non-scaling-stroke" fill-rule="evenodd" d="M5.9375,0 C5.9375,-3.27919 3.27919,-5.9375 0,-5.9375 C-3.27919,-5.9375 -5.9375,-3.27919 -5.9375,0 C-5.9375,3.27919 -3.27919,5.9375 0,5.9375 C3.27919,5.9375 5.9375,3.27919 5.9375,0 "/>
</g>

<g fill="#ffffff" fill-opacity="1" stroke="#ffffff" stroke-opacity="1" stroke-width="1" stroke-linecap="square" stroke-linejoin="bevel" transform="matrix(1,0,0,1,0,0)"
font-family="MS Shell Dlg 2" font-size="8.25" font-weight="400" font-style="normal" 
>
</g>

<g fill="none" stroke="#ffffff" stroke-opacity="1" stroke-width="1" stroke-linecap="square" stroke-linejoin="bevel" transform="matrix(1,0,0,1,941.5,31.6667)"
font-family="MS Shell Dlg 2" font-size="8.25" font-weight="400" font-style="normal" 
>
<path vector-effect="non-scaling-stroke" fill-rule="evenodd" d="M5.9375,0 C5.9375,-3.27919 3.27919,-5.9375 0,-5.9375 C-3.27919,-5.9375 -5.9375,-3.27919 -5.9375,0 C-5.9375,3.27919 -3.27919,5.9375 0,5.9375 C3.27919,5.9375 5.9375,3.27919 5.9375,0 "/>
</g>

<g fill="#ffffff" fill-opacity="1" stroke="#ffffff" stroke-opacity="1" stroke-width="1" stroke-linecap="square" stroke-linejoin="bevel" transform="matrix(1,0,0,1,0,0)"
font-family="MS Shell Dlg 2" font-size="8.25" font-weight="400" font-style="normal" 
>
</g>

<g fill="none" stroke="#ffffff" stroke-opacity="1" stroke-width="1" stroke-linecap="square" stroke-linejoin="bevel" transform="matrix(1,0,0,1,973.167,31.6667)"
font-family="MS Shell Dlg 2" font-size="8.25" font-weight="400" font-style="normal" 
>
<path vector-effect="non-scaling-stroke" fill-rule="evenodd" d="M5.9375,0 C5.9375,-3.27919 3.27919,-5.9375 0,-5.9375 C-3.27919,-5.9375 -5.9375,-3.27919 -5.9375,0 C-5.9375,3.27919 -3.27919,5.9375 0,5.9375 C3.27919,5.9375 5.9375,3.27919 5.9375,0 "/>
</g>

<g fill="#ffffff" fill-opacity="1" stroke="#ffffff" stroke-opacity="1" stroke-width="1" stroke-linecap="square" stroke-linejoin="bevel" transform="matrix(1,0,0,1,0,0)"
font-family="MS Shell Dlg 2" font-size="8.25" font-weight="400" font-style="normal" 
>
<polyline fill="none" vector-effect="non-scaling-stroke" points="292.333,546.25 292.333,0 " />
<polyline fill="none" vector-effect="non-scaling-stroke" points="229,0 292.333,0 " />
<polyline fill="none" vector-effect="non-scaling-stroke" points="292.333,546.25 284.417,546.25 " />
<polyline fill="none" vector-effect="non-scaling-stroke" points="284.417,546.25 284.417,760 " />
<polyline fill="none" vector-effect="non-scaling-stroke" points="284.417,760 236.917,760 " />
<polyline fill="none" vector-effect="non-scaling-stroke" points="236.917,760 236.917,546.25 " />
<polyline fill="none" vector-effect="non-scaling-stroke" points="236.917,546.25 229,546.25 " />
<polyline fill="none" vector-effect="non-scaling-stroke" points="229,546.25 229,0 " />
</g>

<g fill="none" stroke="#ffffff" stroke-opacity="1" stroke-width="1" stroke-linecap="square" stroke-linejoin="bevel" transform="matrix(1,0,0,1,260.667,63.3333)"
font-family="MS Shell Dlg 2" font-size="8.25" font-weight="400" font-style="normal" 
>
<path vector-effect="non-scaling-stroke" fill-rule="evenodd" d="M5.9375,0 C5.9375,-3.27919 3.27919,-5.9375 0,-5.9375 C-3.27919,-5.9375 -5.9375,-3.27919 -5.9375,0 C-5.9375,3.27919 -3.27919,5.9375 0,5.9375 C3.27919,5.9375 5.9375,3.27919 5.9375,0 "/>
</g>

<g fill="#ffffff" fill-opacity="1" stroke="#ffffff" stroke-opacity="1" stroke-width="1" stroke-linecap="square" stroke-linejoin="bevel" transform="matrix(1,0,0,1,0,0)"
font-family="MS Shell Dlg 2" font-size="8.25" font-weight="400" font-style="normal" 
>
</g>

<g fill="none" stroke="#ffffff" stroke-opacity="1" stroke-width="1" stroke-linecap="square" stroke-linejoin="bevel" transform="matrix(1,0,0,1,244.833,31.6667)"
font-family="MS Shell Dlg 2" font-size="8.25" font-weight="400" font-style="normal" 
>
<path vector-effect="non-scaling-stroke" fill-rule="evenodd" d="M5.9375,0 C5.9375,-3.27919 3.27919,-5.9375 0,-5.9375 C-3.27919,-5.9375 -5.9375,-3.27919 -5.9375,0 C-5.9375,3.27919 -3.27919,5.9375 0,5.9375 C3.27919,5.9375 5.9375,3.27919 5.9375,0 "/>
</g>

<g fill="#ffffff" fill-opacity="1" stroke="#ffffff" stroke-opacity="1" stroke-width="1" stroke-linecap="square" stroke-linejoin="bevel" transform="matrix(1,0,0,1,0,0)"
font-family="MS Shell Dlg 2" font-size="8.25" font-weight="400" font-style="normal" 
>
</g>

<g fill="none" stroke="#ffffff" stroke-opacity="1" stroke-width="1" stroke-linecap="square" stroke-linejoin="bevel" transform="matrix(1,0,0,1,276.5,31.6667)"
font-family="MS Shell Dlg 2" font-size="8.25" font-weight="400" font-style="normal" 
>
<path vector-effect="non-scaling-stroke" fill-rule="evenodd" d="M5.9375,0 C5.9375,-3.27919 3.27919,-5.9375 0,-5.9375 C-3.27919,-5.9375 -5.9375,-3.27919 -5.9375,0 C-5.9375,3.27919 -3.27919,5.9375 0,5.9375 C3.27919,5.9375 5.9375,3.27919 5.9375,0 "/>
</g>

<g fill="#ffffff" fill-opacity="1" stroke="#ffffff" stroke-opacity="1" stroke-width="1" stroke-linecap="square" stroke-linejoin="bevel" transform="matrix(1,0,0,1,0,0)"
font-family="MS Shell Dlg 2" font-size="8.25" font-weight="400" font-style="normal" 
>
</g>

<g fill="#ffffff" fill-opacity="1" stroke="#ffffff" stroke-opacity="1" stroke-width="1" stroke-linecap="square" stroke-linejoin="bevel" transform="matrix(1,0,0,1,0,0)"
font-family="MS Shell Dlg 2" font-size="8.25" font-weight="400" font-style="normal" 
>
</g>

<g fill="#ffffff" fill-opacity="1" stroke="#ffffff" stroke-opacity="1" stroke-width="1" stroke-linecap="square" stroke-linejoin="bevel" transform="matrix(1,0,0,1,0,0)"
font-family="MS Shell Dlg 2" font-size="8.25" font-weight="400" font-style="normal" 
>
</g>

<g fill="none" stroke="#000000" stroke-opacity="1" stroke-width="1" stroke-linecap="square" stroke-linejoin="bevel" transform="matrix(1,0,0,1,0,0)"
font-family="MS Shell Dlg 2" font-size="8.25" font-weight="400" font-style="normal" 
>
</g>
</g>
</svg>
